<?xml version="1.0" encoding="UTF-8"?>
<svg width="281px" height="114px" viewBox="0 0 281 114" version="1.1" xmlns="http://www.w3.org/2000/svg" xmlns:xlink="http://www.w3.org/1999/xlink">
    <!-- Generator: Sketch 43.1 (39012) - http://www.bohemiancoding.com/sketch -->
    <title>Sizzly</title>
    <desc>Created with Sketch.</desc>
    <defs>
        <path d="M37.433121,90.9458599 C40.3312247,93.4299487 43.5397913,95.4585909 47.0589172,97.0318471 C50.5780431,98.6051034 54.0350149,99.3917197 57.4299363,99.3917197 C61.2388725,99.3917197 64.0748314,98.6879051 65.9378981,97.2802548 C67.8009647,95.8726044 68.7324841,93.9681649 68.7324841,91.566879 C68.7324841,90.3248346 68.4633785,89.2484122 67.9251592,88.3375796 C67.38694,87.426747 66.6003236,86.6194303 65.5652866,85.9156051 C64.5302496,85.2117799 63.2882238,84.5493662 61.839172,83.9283439 L57.0573248,81.8789809 L46.5,77.4076433 C44.429926,76.5796137 42.4219843,75.5031913 40.4761146,74.1783439 C38.530245,72.8534966 36.7914089,71.3009643 35.2595541,69.5207006 C33.7276993,67.740437 32.506374,65.670394 31.5955414,63.3105096 C30.6847088,60.9506251 30.2292994,58.2802697 30.2292994,55.2993631 C30.2292994,51.9872446 30.933114,48.8614797 32.3407643,45.9219745 C33.7484147,42.9824694 35.735656,40.4156161 38.3025478,38.2213376 C40.8694396,36.0270591 43.9124028,34.3089234 47.4315287,33.066879 C50.9506545,31.8248346 54.8216349,31.2038217 59.044586,31.2038217 C63.7643548,31.2038217 68.4219515,32.1146406 73.0175159,33.9363057 C77.6130803,35.7579709 81.6496641,38.4076259 85.1273885,41.8853503 L75.8121019,53.4363057 C73.1624071,51.3662317 70.5127521,49.7722986 67.8630573,48.6544586 C65.2133625,47.5366186 62.2739015,46.977707 59.044586,46.977707 C55.8980734,46.977707 53.3933214,47.6194203 51.5302548,48.9028662 C49.6671881,50.1863121 48.7356688,51.9872496 48.7356688,54.3057325 C48.7356688,55.5477769 49.0461752,56.6034988 49.6671975,57.4729299 C50.2882197,58.342361 51.1576377,59.1289774 52.2754777,59.8328025 C53.3933177,60.5366277 54.6974448,61.1990415 56.1878981,61.8200637 C57.6783514,62.4410859 59.2929849,63.1242001 61.0318471,63.8694268 L71.4649682,68.0923567 C76.4331459,70.0796278 80.3455271,72.8120845 83.2022293,76.2898089 C86.0589315,79.7675333 87.4872611,84.3630288 87.4872611,90.0764331 C87.4872611,93.4713546 86.804147,96.6799212 85.4378981,99.7022293 C84.0716492,102.724537 82.0844079,105.374192 79.4761146,107.651274 C76.8678214,109.928355 73.6592547,111.749993 69.8503185,113.116242 C66.0413822,114.482491 61.7356928,115.165605 56.933121,115.165605 C51.6337315,115.165605 46.3551218,114.192685 41.0971338,112.246815 C35.8391457,110.300946 31.1401481,107.382185 27,103.490446 L37.433121,90.9458599 Z M108.850318,43.0031847 C105.786609,43.0031847 103.261156,42.1130662 101.273885,40.3328025 C99.2866143,38.5525389 98.2929936,36.2547911 98.2929936,33.4394904 C98.2929936,30.6241897 99.2866143,28.3471425 101.273885,26.6082803 C103.261156,24.8694181 105.786609,24 108.850318,24 C111.996831,24 114.542984,24.8694181 116.488854,26.6082803 C118.434723,28.3471425 119.407643,30.6241897 119.407643,33.4394904 C119.407643,36.2547911 118.434723,38.5525389 116.488854,40.3328025 C114.542984,42.1130662 111.996831,43.0031847 108.850318,43.0031847 Z M99.7834395,52.0700637 L118.041401,52.0700637 L118.041401,113.675159 L99.7834395,113.675159 L99.7834395,52.0700637 Z M130.710191,103.863057 L156.544586,66.3535032 L133.566879,66.3535032 L133.566879,52.0700637 L179.273885,52.0700637 L179.273885,61.7579618 L153.43949,99.3917197 L180.143312,99.3917197 L180.143312,113.675159 L130.710191,113.675159 L130.710191,103.863057 Z M188.843949,103.863057 L214.678344,66.3535032 L191.700637,66.3535032 L191.700637,52.0700637 L237.407643,52.0700637 L237.407643,61.7579618 L211.573248,99.3917197 L238.27707,99.3917197 L238.27707,113.675159 L188.843949,113.675159 L188.843949,103.863057 Z M254.219745,122.617834 C254.799366,122.78344 255.46178,122.949044 256.207006,123.11465 C256.952233,123.280256 257.656048,123.363057 258.318471,123.363057 C261.382181,123.363057 263.74203,122.617842 265.398089,121.127389 C267.054148,119.636935 268.296174,117.691095 269.124204,115.289809 L269.993631,112.06051 L246.270701,52.0700637 L264.652866,52.0700637 L273.471338,78.5254777 C274.38217,81.3407784 275.210187,84.1974377 275.955414,87.0955414 C276.700641,89.9936451 277.487257,92.974507 278.315287,96.0382166 L278.812102,96.0382166 C279.474526,93.1401129 280.15764,90.2213523 280.861465,87.2818471 C281.56529,84.342342 282.289805,81.4235814 283.035032,78.5254777 L290.487261,52.0700637 L308,52.0700637 L286.636943,114.296178 C285.146489,118.187918 283.593957,121.603488 281.979299,124.542994 C280.364642,127.482499 278.501603,129.92515 276.390127,131.871019 C274.278652,133.816889 271.877402,135.286619 269.186306,136.280255 C266.495209,137.27389 263.328044,137.770701 259.684713,137.770701 C257.780245,137.770701 256.165612,137.667198 254.840764,137.460191 C253.515917,137.253184 252.23249,136.942677 250.990446,136.528662 L254.219745,122.617834 Z" id="path-1"></path>
        <filter x="-0.7%" y="-1.8%" width="101.4%" height="103.5%" filterUnits="objectBoundingBox" id="filter-2">
            <feGaussianBlur stdDeviation="1.5" in="SourceAlpha" result="shadowBlurInner1"></feGaussianBlur>
            <feOffset dx="0" dy="1" in="shadowBlurInner1" result="shadowOffsetInner1"></feOffset>
            <feComposite in="shadowOffsetInner1" in2="SourceAlpha" operator="arithmetic" k2="-1" k3="1" result="shadowInnerInner1"></feComposite>
            <feColorMatrix values="0 0 0 0 0   0 0 0 0 0   0 0 0 0 0  0 0 0 0.2 0" type="matrix" in="shadowInnerInner1"></feColorMatrix>
        </filter>
    </defs>
    <g id="Page-1" stroke="none" stroke-width="1" fill="none" fill-rule="evenodd">
        <g id="Header-Logo" transform="translate(-27.000000, -24.000000)">
            <g id="Sizzly">
                <use fill="#FFFFFF" fill-rule="evenodd" xlink:href="#path-1"></use>
                <use fill="black" fill-opacity="1" filter="url(#filter-2)" xlink:href="#path-1"></use>
            </g>
        </g>
    </g>
</svg>
