<?xml version="1.0" encoding="UTF-8"?>
<svg width="141px" height="196px" viewBox="0 0 141 196" version="1.1" xmlns="http://www.w3.org/2000/svg" xmlns:xlink="http://www.w3.org/1999/xlink">
    <!-- Generator: Sketch 43.2 (39069) - http://www.bohemiancoding.com/sketch -->
    <title>S</title>
    <desc>Created with Sketch.</desc>
    <defs>
        <path d="M136.708,229.296 C143.428034,235.056029 150.867959,239.759982 159.028,243.408 C167.188041,247.056018 175.203961,248.88 183.076,248.88 C191.908044,248.88 198.483978,247.248016 202.804,243.984 C207.124022,240.719984 209.284,236.304028 209.284,230.736 C209.284,227.855986 208.660006,225.360011 207.412,223.248 C206.163994,221.135989 204.340012,219.264008 201.94,217.632 C199.539988,215.999992 196.660017,214.464007 193.3,213.024 L182.212,208.272 L157.732,197.904 C152.931976,195.98399 148.276023,193.488015 143.764,190.416 C139.251977,187.343985 135.220018,183.744021 131.668,179.616 C128.115982,175.487979 125.284011,170.688027 123.172,165.216 C121.059989,159.743973 120.004,153.552035 120.004,146.64 C120.004,138.959962 121.635984,131.712034 124.9,124.896 C128.164016,118.079966 132.77197,112.128025 138.724,107.04 C144.67603,101.951975 151.731959,97.9680144 159.892,95.088 C168.052041,92.2079856 177.027951,90.768 186.82,90.768 C197.764055,90.768 208.563947,92.8799789 219.22,97.104 C229.876053,101.328021 239.23596,107.47196 247.3,115.536 L225.7,142.32 C219.555969,137.519976 213.412031,133.824013 207.268,131.232 C201.123969,128.639987 194.308037,127.344 186.82,127.344 C179.523964,127.344 173.716022,128.831985 169.396,131.808 C165.075978,134.784015 162.916,138.959973 162.916,144.336 C162.916,147.216014 163.635993,149.66399 165.076,151.68 C166.516007,153.69601 168.531987,155.519992 171.124,157.152 C173.716013,158.784008 176.739983,160.319993 180.196,161.76 C183.652017,163.200007 187.39598,164.783991 191.428,166.512 L215.62,176.304 C227.140058,180.912023 236.211967,187.24796 242.836,195.312 C249.460033,203.37604 252.772,214.031934 252.772,227.28 C252.772,235.152039 251.188016,242.591965 248.02,249.6 C244.851984,256.608035 240.24403,262.751974 234.196,268.032 C228.14797,273.312026 220.708044,277.535984 211.876,280.704 C203.043956,283.872016 193.060056,285.456 181.924,285.456 C169.635939,285.456 157.396061,283.200023 145.204,278.688 C133.011939,274.175977 122.116048,267.408045 112.516,258.384 L136.708,229.296 Z" id="path-1"></path>
        <filter x="-1.4%" y="-1.0%" width="102.9%" height="102.1%" filterUnits="objectBoundingBox" id="filter-2">
            <feGaussianBlur stdDeviation="1.5" in="SourceAlpha" result="shadowBlurInner1"></feGaussianBlur>
            <feOffset dx="0" dy="1" in="shadowBlurInner1" result="shadowOffsetInner1"></feOffset>
            <feComposite in="shadowOffsetInner1" in2="SourceAlpha" operator="arithmetic" k2="-1" k3="1" result="shadowInnerInner1"></feComposite>
            <feColorMatrix values="0 0 0 0 0   0 0 0 0 0   0 0 0 0 0  0 0 0 0.290789176 0" type="matrix" in="shadowInnerInner1"></feColorMatrix>
        </filter>
    </defs>
    <g id="Page-1" stroke="none" stroke-width="1" fill="none" fill-rule="evenodd">
        <g id="play/ic_launcher_APP" transform="translate(-112.000000, -90.000000)">
            <g id="S" transform="translate(182.644000, 188.112000) rotate(-360.000000) translate(-182.644000, -188.112000) ">
                <use fill="#FFFFFF" fill-rule="evenodd" xlink:href="#path-1"></use>
                <use fill="black" fill-opacity="1" filter="url(#filter-2)" xlink:href="#path-1"></use>
            </g>
        </g>
    </g>
</svg>