<?xml version="1.0" encoding="UTF-8"?>
<svg width="360px" height="362px" viewBox="0 0 360 362" version="1.1" xmlns="http://www.w3.org/2000/svg" xmlns:xlink="http://www.w3.org/1999/xlink">
    <!-- Generator: Sketch 43.2 (39069) - http://www.bohemiancoding.com/sketch -->
    <title>Group 2</title>
    <desc>Created with Sketch.</desc>
    <defs></defs>
    <g id="Page-1" stroke="none" stroke-width="1" fill="none" fill-rule="evenodd">
        <g id="play/ic_launcher_APP" transform="translate(-2.000000, -2.000000)">
            <g id="Group-2" transform="translate(4.000000, 3.000000)">
                <rect id="Rectangle-2" fill="#AEE0F1" opacity="0.91" transform="translate(341.660063, 169.968744) rotate(-29.000000) translate(-341.660063, -169.968744) " x="325.388108" y="166.044625" width="32.5439093" height="7.84823848"></rect>
                <rect id="Rectangle-2" fill="#AEE0F1" opacity="0.84" transform="translate(137.563456, 37.011251) rotate(-75.000000) translate(-137.563456, -37.011251) " x="121.291502" y="33.0871317" width="32.5439093" height="7.84823848"></rect>
                <rect id="Rectangle-2" fill="#AEE0F1" opacity="0.92" transform="translate(16.737051, 293.116054) rotate(-62.000000) translate(-16.737051, -293.116054) " x="-1.0603996" y="289.191934" width="35.5949008" height="7.84823848"></rect>
                <rect id="Rectangle-2" fill="#AEE0F1" opacity="0.89" transform="translate(78.621729, 91.019999) rotate(-8.000000) translate(-78.621729, -91.019999) " x="65.4007663" y="88.0769099" width="26.4419263" height="5.88617886"></rect>
                <rect id="Rectangle-2" fill="#AEE0F1" opacity="0.89" transform="translate(280.224351, 294.838000) rotate(-8.000000) translate(-280.224351, -294.838000) " x="263.571598" y="291.130967" width="33.3055065" height="7.4140653"></rect>
                <ellipse id="Oval" stroke="#D96666" stroke-width="4" opacity="0.73" transform="translate(344.280357, 335.031152) rotate(-357.000000) translate(-344.280357, -335.031152) " cx="344.280357" cy="335.031152" rx="10.1699717" ry="9.8102981"></ellipse>
                <ellipse id="Oval" stroke="#D96666" stroke-width="4" opacity="0.9" transform="translate(344.189691, 13.683744) rotate(-276.000000) translate(-344.189691, -13.683744) " cx="344.189691" cy="13.6837444" rx="12.203966" ry="11.7723577"></ellipse>
                <ellipse id="Oval" stroke="#B9597B" stroke-width="4" opacity="0.9" transform="translate(292.086994, 207.182316) rotate(-276.000000) translate(-292.086994, -207.182316) " cx="292.086994" cy="207.182316" rx="12.203966" ry="11.7723577"></ellipse>
                <ellipse id="Oval" stroke="#D96666" stroke-width="4" opacity="0.71" transform="translate(196.744739, 248.557136) rotate(-239.000000) translate(-196.744739, -248.557136) " cx="196.744739" cy="248.557136" rx="9.66147309" ry="9.3197832"></ellipse>
                <ellipse id="Oval" stroke="#D96666" stroke-width="4" opacity="0.73" transform="translate(228.447749, 73.754361) rotate(-23.000000) translate(-228.447749, -73.754361) " cx="228.447749" cy="73.7543612" rx="12.7124646" ry="12.2628726"></ellipse>
                <ellipse id="Oval" stroke="#D96666" stroke-width="4" opacity="0.87" transform="translate(165.263907, 329.595577) rotate(-145.000000) translate(-165.263907, -329.595577) " cx="165.263907" cy="329.595577" rx="10.6784703" ry="10.300813"></ellipse>
                <ellipse id="Oval" stroke="#D96666" stroke-width="4" opacity="0.88" transform="translate(88.696973, 206.210366) rotate(-12.000000) translate(-88.696973, -206.210366) " cx="88.6969735" cy="206.210366" rx="14.7464589" ry="14.2249322"></ellipse>
                <ellipse id="Oval" stroke="#D96666" stroke-width="4" opacity="0.8" transform="translate(152.823905, 144.345519) rotate(-289.000000) translate(-152.823905, -144.345519) " cx="152.823905" cy="144.345519" rx="11.6954674" ry="11.2818428"></ellipse>
                <ellipse id="Oval" stroke="#D96666" stroke-width="4" opacity="0.9" transform="translate(29.786925, 345.589707) rotate(-292.000000) translate(-29.786925, -345.589707) " cx="29.7869253" cy="345.589707" rx="12.7124646" ry="12.2628726"></ellipse>
                <ellipse id="Oval" stroke="#B9597B" stroke-width="4" opacity="0.84" transform="translate(12.785105, 98.941343) rotate(-271.000000) translate(-12.785105, -98.941343) " cx="12.7851052" cy="98.9413432" rx="12.7124646" ry="12.2628726"></ellipse>
                <g id="Zigzag" opacity="0.9" transform="translate(309.052251, 306.283448) rotate(-234.000000) translate(-309.052251, -306.283448) translate(298.373781, 294.020575)" stroke-linecap="square" stroke-width="4" stroke="#65BF94">
                    <polyline id="Line" transform="translate(10.388139, 12.259615) rotate(29.000000) translate(-10.388139, -12.259615) " points="4.29545455 22.5961538 4.29545455 13.6181811 14.7052752 10.7782933 16.4808239 1.92307692"></polyline>
                </g>
                <g id="Zigzag" opacity="0.98" transform="translate(258.964376, 20.321280) rotate(-58.000000) translate(-258.964376, -20.321280) translate(249.811402, 9.529952)" stroke-linecap="square" stroke-width="4" stroke="#65BF94">
                    <polyline id="Line" transform="translate(8.904119, 10.788462) rotate(29.000000) translate(-8.904119, -10.788462) " points="3.68181818 19.8846154 3.68181818 11.9839993 12.6045216 9.4848981 14.1264205 1.69230769"></polyline>
                </g>
                <g id="Zigzag" opacity="0.91" transform="translate(141.113836, 253.373646) rotate(-356.000000) translate(-141.113836, -253.373646) translate(127.384374, 237.677169)" stroke-linecap="square" stroke-width="4" stroke="#65BF94">
                    <polyline id="Line" transform="translate(13.356179, 15.201923) rotate(29.000000) translate(-13.356179, -15.201923) " points="5.52272727 28.0192308 5.52272727 16.8865445 18.9067824 13.3650837 21.1896307 2.38461538"></polyline>
                </g>
                <g id="Zigzag" opacity="0.91" transform="translate(36.205029, 188.262306) rotate(-356.000000) translate(-36.205029, -188.262306) translate(22.475568, 172.565829)" stroke-linecap="square" stroke-width="4" stroke="#65BF94">
                    <polyline id="Line" transform="translate(13.356179, 15.201923) rotate(29.000000) translate(-13.356179, -15.201923) " points="5.52272727 28.0192308 5.52272727 16.8865445 18.9067824 13.3650837 21.1896307 2.38461538"></polyline>
                </g>
                <g id="Zigzag" opacity="0.91" transform="translate(308.760270, 96.045504) rotate(-386.000000) translate(-308.760270, -96.045504) translate(295.030808, 80.349027)" stroke-linecap="square" stroke-width="4" stroke="#65BF94">
                    <polyline id="Line" transform="translate(13.356179, 15.201923) rotate(29.000000) translate(-13.356179, -15.201923) " points="5.52272727 28.0192308 5.52272727 16.8865445 18.9067824 13.3650837 21.1896307 2.38461538"></polyline>
                </g>
                <g id="Zigzag" opacity="0.98" transform="translate(45.900068, 50.249698) rotate(-202.000000) translate(-45.900068, -50.249698) translate(36.238594, 38.967855)" stroke-linecap="square" stroke-width="4" stroke="#65BF94">
                    <polyline id="Line" transform="translate(9.398793, 11.278846) rotate(29.000000) translate(-9.398793, -11.278846) " points="3.88636364 20.7884615 3.88636364 12.5287266 13.3047728 9.91602983 14.9112216 1.76923077"></polyline>
                </g>
            </g>
        </g>
    </g>
</svg>